<svg width="130" height="70" viewBox="0 0 130 70" fill="none" xmlns="http://www.w3.org/2000/svg">
<path d="M36.1602 46.657C36.1602 46.5718 36.2281 46.5037 36.313 46.5037H38.2484C39.2331 46.5037 40.048 47.313 40.048 48.2842C40.048 49.2809 39.2331 50.0988 38.2569 50.0988H37.4165V51.9901C37.4165 52.0667 37.3401 52.1434 37.2637 52.1434H36.313C36.2281 52.1434 36.1602 52.0667 36.1602 51.9901V46.657ZM38.1805 48.9231C38.5285 48.9231 38.8172 48.6505 38.8172 48.2842C38.8172 47.9434 38.5285 47.6878 38.1805 47.6878H37.4165V48.9231H38.1805Z" fill="#FFFFFF"/>
<path d="M44.4135 46.4268C46.0179 46.4268 47.3082 47.7217 47.3082 49.3403C47.3082 50.9505 46.0264 52.2369 44.4135 52.2369C42.8092 52.2369 41.5273 50.9505 41.5273 49.3403C41.5358 47.7217 42.8092 46.4268 44.4135 46.4268ZM44.4135 50.9334C45.2964 50.9334 46.0179 50.2093 46.0179 49.3318C46.0179 48.4458 45.2964 47.7132 44.4135 47.7132C43.5392 47.7132 42.8176 48.4458 42.8176 49.3318C42.8176 50.2093 43.5392 50.9334 44.4135 50.9334Z" fill="#FFFFFF"/>
<path d="M49.1484 46.657C49.1484 46.5718 49.2163 46.5037 49.3012 46.5037H50.2605C50.3454 46.5037 50.4133 46.5803 50.4133 46.657V50.9592H52.3233C52.4081 50.9592 52.4761 51.0359 52.4761 51.1126V51.9901C52.4761 52.0667 52.4081 52.1434 52.3233 52.1434H49.3012C49.2163 52.1434 49.1484 52.0667 49.1484 51.9901V46.657Z" fill="#FFFFFF"/>
<path d="M54.5742 46.657C54.5742 46.5718 54.6421 46.5037 54.727 46.5037H55.6863C55.7627 46.5037 55.8391 46.5803 55.8391 46.657V51.9901C55.8391 52.0667 55.7627 52.1434 55.6863 52.1434H54.727C54.6421 52.1434 54.5742 52.0667 54.5742 51.9901V46.657Z" fill="#FFFFFF"/>
<path d="M59.2675 47.6878H58.1215C58.0367 47.6878 57.9688 47.6112 57.9688 47.5345V46.657C57.9688 46.5718 58.0367 46.5037 58.1215 46.5037H61.6869C61.7718 46.5037 61.8397 46.5803 61.8397 46.657V47.5345C61.8397 47.6197 61.7802 47.6878 61.6869 47.6878H60.5409V51.9901C60.5409 52.0667 60.4645 52.1434 60.3881 52.1434H59.4203C59.3439 52.1434 59.2675 52.0667 59.2675 51.9901V47.6878Z" fill="#FFFFFF"/>
<path d="M63.9219 46.6569C63.9219 46.5717 63.9813 46.5035 64.0747 46.5035H67.4023C67.4872 46.5035 67.5551 46.5802 67.5551 46.6569V47.5344C67.5551 47.611 67.4872 47.6877 67.4023 47.6877H65.1782V48.6845H67.0118C67.0882 48.6845 67.1646 48.7611 67.1646 48.8378V49.7153C67.1646 49.8005 67.0967 49.8686 67.0118 49.8686H65.1782V50.9591H67.4023C67.4872 50.9591 67.5551 51.0273 67.5551 51.1125V51.9899C67.5551 52.0666 67.4872 52.1433 67.4023 52.1433H64.0747C63.9898 52.1433 63.9219 52.0751 63.9219 51.9899V46.6569ZM64.9915 45.9327L64.8217 45.592C64.7877 45.5238 64.8302 45.4727 64.8726 45.4386L66.2393 44.5952C66.2903 44.5611 66.4091 44.5441 66.4515 44.6208L66.7232 45.0979C66.7826 45.2171 66.7402 45.2938 66.6723 45.3364L65.2122 45.9924C65.1018 46.0691 65.0254 46.0179 64.9915 45.9327Z" fill="#FFFFFF"/>
<path d="M72.23 46.4268C73.0364 46.4268 73.6307 46.6738 74.1739 47.1765C74.2503 47.2361 74.2503 47.3383 74.1824 47.398L73.5543 48.0539C73.5033 48.1136 73.4099 48.1136 73.359 48.0539C73.0619 47.7898 72.6714 47.645 72.2724 47.645C71.3641 47.645 70.702 48.4032 70.702 49.3063C70.702 50.2008 71.3726 50.942 72.2809 50.942C72.6544 50.942 73.0704 50.8057 73.359 50.5586C73.4184 50.5075 73.5203 50.5075 73.5712 50.5671L74.1994 51.2401C74.2588 51.2998 74.2503 51.402 74.1909 51.4616C73.6476 51.9898 72.96 52.2454 72.2385 52.2454C70.6341 52.2454 69.3438 50.959 69.3438 49.3489C69.3353 47.7217 70.6256 46.4268 72.23 46.4268Z" fill="#FFFFFF"/>
<path d="M76.2617 46.5716C76.2617 46.4949 76.3381 46.4268 76.4145 46.4268H76.6182L79.8185 49.5193H79.827V46.6568C79.827 46.5716 79.8949 46.5034 79.9798 46.5034H80.9391C81.024 46.5034 81.0919 46.5801 81.0919 46.6568V52.0835C81.0919 52.1602 81.0155 52.2284 80.9391 52.2284H80.8117C80.7863 52.2284 80.7268 52.2028 80.7099 52.1858L77.535 48.9825H77.5266V51.9898C77.5266 52.0665 77.4586 52.1432 77.3738 52.1432H76.4145C76.3381 52.1432 76.2617 52.0665 76.2617 51.9898V46.5716Z" fill="#FFFFFF"/>
<path d="M83.6055 46.657C83.6055 46.5718 83.6819 46.5037 83.7583 46.5037H84.726C84.8109 46.5037 84.8788 46.5803 84.8788 46.657V51.9901C84.8788 52.0667 84.8024 52.1434 84.726 52.1434H83.7583C83.6819 52.1434 83.6055 52.0667 83.6055 51.9901V46.657Z" fill="#FFFFFF"/>
<path d="M89.7424 46.4268C90.5403 46.4268 91.1431 46.6738 91.6863 47.1765C91.7627 47.2361 91.7627 47.3383 91.6948 47.398L91.0666 48.0539C91.0072 48.1136 90.9223 48.1136 90.8629 48.0539C90.5658 47.7898 90.1753 47.645 89.7763 47.645C88.868 47.645 88.2059 48.4032 88.2059 49.3063C88.2059 50.2008 88.885 50.942 89.7933 50.942C90.1668 50.942 90.5828 50.8057 90.8714 50.5586C90.9308 50.5075 91.0327 50.5075 91.0836 50.5671L91.7118 51.2401C91.7712 51.2998 91.7627 51.402 91.7033 51.4616C91.16 51.9898 90.4639 52.2454 89.7509 52.2454C88.1465 52.2454 86.8477 50.959 86.8477 49.3489C86.8392 47.7217 88.1295 46.4268 89.7424 46.4268Z" fill="#FFFFFF"/>
<path d="M96.0932 46.4268C97.6976 46.4268 98.9879 47.7217 98.9879 49.3403C98.9879 50.9505 97.7061 52.2369 96.0932 52.2369C94.4888 52.2369 93.207 50.9505 93.207 49.3403C93.2155 47.7217 94.4888 46.4268 96.0932 46.4268ZM96.0932 50.9334C96.9761 50.9334 97.6976 50.2093 97.6976 49.3318C97.6976 48.4458 96.9761 47.7132 96.0932 47.7132C95.2189 47.7132 94.4973 48.4458 94.4973 49.3318C94.4973 50.2093 95.2274 50.9334 96.0932 50.9334Z" fill="#FFFFFF"/>
<path d="M38.6486 55.6958C39.3277 55.6958 40.0662 55.9769 40.6095 56.454C40.6774 56.5051 40.6859 56.6074 40.6265 56.6755L39.9898 57.3485C39.9304 57.4082 39.837 57.4082 39.7776 57.3571C39.472 57.0759 39.1155 56.9737 38.725 56.9737C37.8506 56.9737 37.1461 57.7149 37.1461 58.6009C37.1461 59.4783 37.8591 60.2025 38.7335 60.2025C38.9627 60.2025 39.2089 60.1684 39.4465 60.0747V59.5976H38.9372C38.8523 59.5976 38.7844 59.5295 38.7844 59.4528V58.6605C38.7844 58.5753 38.8523 58.5072 38.9372 58.5072H40.5501C40.635 58.5072 40.6944 58.5838 40.6944 58.6605L40.7029 60.8329C40.7029 60.8755 40.6689 60.9351 40.635 60.9607C40.635 60.9607 39.8116 61.4804 38.6401 61.4804C37.0442 61.4804 35.7539 60.211 35.7539 58.6009C35.7624 56.9822 37.0527 55.6958 38.6486 55.6958Z" fill="#FFFFFF"/>
<path d="M43.3093 55.9173C43.3093 55.8321 43.3772 55.7639 43.4621 55.7639H45.8644C46.8236 55.7639 47.6131 56.5477 47.6131 57.5018C47.6131 58.243 47.1292 58.8394 46.4247 59.1205L47.5197 61.1651C47.5792 61.2674 47.5197 61.3951 47.3839 61.3951H46.3143C46.2549 61.3951 46.204 61.3611 46.187 61.3185L45.1174 59.1801H44.5656V61.2333C44.5656 61.31 44.4892 61.3866 44.4128 61.3866H43.4536C43.3687 61.3866 43.3008 61.31 43.3008 61.2333V55.9173H43.3093ZM45.7625 58.1749C46.0936 58.1749 46.3737 57.8682 46.3737 57.5274C46.3737 57.1866 46.0936 56.914 45.7625 56.914H44.5741V58.1749H45.7625Z" fill="#FFFFFF"/>
<path d="M49.2359 61.1992L51.7486 55.7724C51.774 55.7213 51.825 55.6873 51.8844 55.6873H51.9693C52.0287 55.6873 52.0796 55.7299 52.1051 55.7724L54.6178 61.1992C54.6687 61.3014 54.6008 61.4122 54.482 61.4122H53.5906C53.4463 61.4122 53.3784 61.3611 53.3105 61.2077L53.0219 60.5688H50.8402L50.5431 61.2163C50.5007 61.31 50.4158 61.4122 50.2545 61.4122H49.3717C49.2528 61.4037 49.1849 61.3014 49.2359 61.1992ZM52.538 59.4698L51.9268 58.1408H51.9183L51.3156 59.4698H52.538Z" fill="#FFFFFF"/>
<path d="M56.3828 55.8321C56.3828 55.7554 56.4592 55.6873 56.5356 55.6873H56.7393L59.9481 58.7797H59.9566V55.9173C59.9566 55.8406 60.016 55.7639 60.1094 55.7639H61.0686C61.145 55.7639 61.2214 55.8406 61.2214 55.9173V61.344C61.2214 61.4207 61.1535 61.4889 61.0686 61.4889H60.9413C60.9158 61.4889 60.8564 61.4633 60.8395 61.4463L57.6646 58.243H57.6561V61.2503C57.6561 61.327 57.5967 61.4037 57.5033 61.4037H56.5441C56.4677 61.4037 56.3913 61.327 56.3913 61.2503L56.3828 55.8321Z" fill="#FFFFFF"/>
<path d="M66.1604 55.6873C66.9668 55.6873 67.561 55.9343 68.1043 56.4369C68.1807 56.5051 68.1807 56.5988 68.1128 56.6585L67.4846 57.3144C67.4337 57.3741 67.3403 57.3741 67.2809 57.3144C66.9838 57.0503 66.5933 56.9055 66.1943 56.9055C65.286 56.9055 64.6239 57.6637 64.6239 58.5668C64.6239 59.4613 65.2945 60.2025 66.2028 60.2025C66.5848 60.2025 66.9923 60.0662 67.2809 59.8191C67.3403 59.768 67.4422 59.768 67.4931 59.8276L68.1213 60.4921C68.1807 60.5518 68.1722 60.654 68.1128 60.7136C67.5695 61.2418 66.8734 61.4974 66.1604 61.4974C64.556 61.4974 63.2657 60.211 63.2657 58.6008C63.2572 56.9822 64.5475 55.6873 66.1604 55.6873Z" fill="#FFFFFF"/>
<path d="M72.5698 55.6873C74.1742 55.6873 75.4645 56.9822 75.4645 58.5923C75.4645 60.2025 74.1827 61.4889 72.5698 61.4889C70.9654 61.4889 69.6836 60.211 69.6836 58.5923C69.6836 56.9737 70.9654 55.6873 72.5698 55.6873ZM72.5698 60.1939C73.4526 60.1939 74.1742 59.4698 74.1742 58.5923C74.1742 57.7063 73.4526 56.9737 72.5698 56.9737C71.6954 56.9737 70.9739 57.7063 70.9739 58.5923C70.9739 59.4698 71.6954 60.1939 72.5698 60.1939Z" fill="#FFFFFF"/>
<path d="M77.3828 55.9173C77.3828 55.8321 77.4507 55.7639 77.5356 55.7639H78.4864C78.5628 55.7639 78.6392 55.8406 78.6392 55.9173V60.2195H80.5491C80.634 60.2195 80.7019 60.2962 80.7019 60.3728V61.2503C80.7019 61.327 80.634 61.4037 80.5491 61.4037H77.5356C77.4422 61.4037 77.3828 61.3355 77.3828 61.2503V55.9173Z" fill="#FFFFFF"/>
<path d="M84.9643 55.6873C86.5687 55.6873 87.859 56.9822 87.859 58.5923C87.859 60.2025 86.5772 61.4889 84.9643 61.4889C83.3599 61.4889 82.0781 60.211 82.0781 58.5923C82.0781 56.9737 83.3515 55.6873 84.9643 55.6873ZM84.9643 60.1939C85.8472 60.1939 86.5687 59.4698 86.5687 58.5923C86.5687 57.7063 85.8472 56.9737 84.9643 56.9737C84.09 56.9737 83.3684 57.7063 83.3684 58.5923C83.3684 59.4698 84.09 60.1939 84.9643 60.1939Z" fill="#FFFFFF"/>
<path d="M90.3886 55.815C90.3971 55.7469 90.4735 55.6873 90.5329 55.6873H90.6602C90.7027 55.6873 90.7706 55.7213 90.7961 55.7639L92.6551 59.2483H92.6721L94.5396 55.7639C94.5651 55.7128 94.633 55.6873 94.6755 55.6873H94.8028C94.8707 55.6873 94.9386 55.7469 94.9471 55.815L95.8554 61.2333C95.8724 61.3355 95.796 61.4122 95.7026 61.4122H94.7519C94.6755 61.4122 94.6075 61.344 94.5991 61.2844L94.234 58.7968H94.2171L92.8673 61.4037C92.8419 61.4548 92.774 61.4889 92.7315 61.4889H92.5872C92.5363 61.4889 92.4769 61.4463 92.4514 61.4037L91.0932 58.7968H91.0762L90.7197 61.2844C90.7112 61.344 90.6518 61.4122 90.5669 61.4122H89.6161C89.5227 61.4122 89.4463 61.3355 89.4633 61.2333L90.3886 55.815Z" fill="#FFFFFF"/>
<path d="M98.3086 55.9173C98.3086 55.8321 98.368 55.7639 98.4614 55.7639H100.337C101.288 55.7639 102.061 56.4199 102.061 57.2633C102.061 57.8852 101.509 58.3367 101.127 58.5327C101.551 58.7116 102.205 59.1035 102.205 59.8446C102.205 60.7477 101.407 61.3951 100.456 61.3951H98.4614C98.3765 61.3951 98.3086 61.3185 98.3086 61.2418V55.9173ZM100.193 58.0556C100.499 58.0556 100.753 57.8 100.753 57.4763C100.753 57.1526 100.499 56.9311 100.193 56.9311H99.565V58.0556H100.193ZM100.295 60.2536C100.609 60.2536 100.872 59.998 100.872 59.6657C100.872 59.342 100.524 59.1035 100.21 59.1035H99.5565V60.2536H100.295Z" fill="#FFFFFF"/>
<path d="M104.344 55.9173C104.344 55.8321 104.42 55.7639 104.497 55.7639H105.456C105.541 55.7639 105.609 55.8406 105.609 55.9173V61.2503C105.609 61.327 105.541 61.4037 105.456 61.4037H104.497C104.412 61.4037 104.344 61.3355 104.344 61.2503V55.9173Z" fill="#FFFFFF"/>
<path d="M107.4 61.1992L109.913 55.7724C109.938 55.7213 109.989 55.6873 110.048 55.6873H110.133C110.193 55.6873 110.244 55.7299 110.269 55.7724L112.782 61.1992C112.833 61.3014 112.765 61.4122 112.646 61.4122H111.755C111.61 61.4122 111.542 61.3611 111.474 61.2077L111.186 60.5688H109.004L108.716 61.2163C108.673 61.31 108.588 61.4122 108.427 61.4122H107.544C107.417 61.4037 107.349 61.3014 107.4 61.1992ZM110.702 59.4698L110.091 58.1408H110.082L109.48 59.4698H110.702Z" fill="#FFFFFF"/>
<path d="M114.547 55.8321C114.547 55.7554 114.623 55.6873 114.7 55.6873H114.903L118.104 58.7797H118.112V55.9173C118.112 55.8406 118.18 55.7639 118.265 55.7639H119.224C119.301 55.7639 119.377 55.8406 119.377 55.9173V61.344C119.377 61.4207 119.301 61.4889 119.224 61.4889H119.097C119.071 61.4889 119.012 61.4633 118.995 61.4463L115.82 58.243H115.812V61.2503C115.812 61.327 115.744 61.4037 115.659 61.4037H114.7C114.623 61.4037 114.547 61.327 114.547 61.2503V55.8321Z" fill="#FFFFFF"/>
<path d="M124.082 55.6873C125.686 55.6873 126.976 56.9822 126.976 58.5923C126.976 60.2025 125.694 61.4889 124.082 61.4889C122.477 61.4889 121.195 60.211 121.195 58.5923C121.195 56.9737 122.477 55.6873 124.082 55.6873ZM124.082 60.1939C124.964 60.1939 125.686 59.4698 125.686 58.5923C125.686 57.7063 124.964 56.9737 124.082 56.9737C123.207 56.9737 122.486 57.7063 122.486 58.5923C122.486 59.4698 123.207 60.1939 124.082 60.1939Z" fill="#FFFFFF"/>
<path fill-rule="evenodd" clip-rule="evenodd" d="M74.9786 6.77019C82.9836 5.5349 89.3247 9.93936 91.6931 13.8241C93.2721 16.414 93.6456 18.3053 93.8578 19.9154C97.0751 45.1324 59.9279 45.0984 61.719 21.1507C62.0756 16.3884 63.663 14.0201 65.0721 12.2055C67.0755 9.59859 70.5559 7.46025 74.9786 6.77019ZM68.8751 26.8331C69.5627 28.9288 71.6934 31.5272 73.8751 32.4472C79.605 34.8582 85.0124 31.4931 86.6253 27.2335C89.5115 19.6002 84.1211 11.8477 76.9056 12.6655C70.4456 13.3811 66.5492 19.8047 68.8751 26.8331Z" fill="#FFFFFF"/>
<path fill-rule="evenodd" clip-rule="evenodd" d="M126.676 38.6237H119.961V7.00024C122.092 7.00024 126.693 7.00024 126.693 10.4761C126.693 13.0745 126.676 38.6237 126.676 38.6237Z" fill="#FFFFFF"/>
<path fill-rule="evenodd" clip-rule="evenodd" d="M113.655 32.7625H113.451C113.425 32.7625 113.4 32.7625 113.374 32.7625H105.038L105.03 13.0745V10.4591C105.03 7.00024 100.403 7.00024 98.2812 7.00024V7.86069V7.31546V38.6237H116.634C116.634 36.7751 116.634 32.7625 113.655 32.7625Z" fill="#FFFFFF"/>
<path fill-rule="evenodd" clip-rule="evenodd" d="M57.6369 13.2958C55.0987 7.40051 48.5963 6.38672 43.104 6.38672C43.0955 6.38672 43.087 6.38672 43.0701 6.38672C40.9394 6.38672 36.1686 7.05122 36.1686 7.05122L36.1602 38.6151C38.2909 38.6151 43.0616 38.6151 43.0616 35.1392V35.0796V30.0447C54.5894 31.7571 61.7285 22.7778 57.6369 13.2958ZM47.9087 24.4646C45.3281 24.7372 43.0446 24.3964 43.0446 24.3964V12.6995C43.0446 12.6995 45.1159 12.5632 47.8068 12.7421C50.4978 12.9125 52.3738 15.5364 52.3738 18.7311C52.3823 21.9259 50.4893 24.192 47.9087 24.4646Z" fill="#FFFFFF"/>
<path d="M27.1285 3.38771C16.6448 17.4871 10.7875 44.4506 24.4885 65.3313C26.6107 68.3897 28.2151 69.9146 28.2151 69.9146C12.8418 46.9978 23.9113 16.9759 35.3542 1.59015L25.0912 0.269665C25.0912 0.269665 20.312 -1.07638 18.3002 2.24613L27.1285 3.38771Z" fill="#FFFFFF"/>
<path d="M27.3169 69.9317C9.44792 50.593 11.4598 19.9322 22.2321 5.45795C22.2321 5.45795 14.1932 4.49528 12.6312 4.33341C10.6703 4.12895 6.5702 3.24295 5.65341 7.80927C-3.34476 52.4843 27.3169 69.9317 27.3169 69.9317Z" fill="#3DB2DE"/>
<path d="M36.207 66.2516C36.207 66.2005 36.258 66.1494 36.3089 66.1494H36.5211C36.5721 66.1494 36.623 66.2005 36.623 66.2516V69.8383C36.623 69.8894 36.5721 69.9405 36.5211 69.9405H36.3089C36.258 69.9405 36.207 69.8894 36.207 69.8383V66.2516Z" fill="#FFFFFF"/>
<path d="M38.4805 66.1919C38.4805 66.1407 38.5314 66.0981 38.5823 66.0981H38.7182L41.1545 69.1395H41.1629V66.2515C41.1629 66.2004 41.2054 66.1493 41.2648 66.1493H41.4516C41.5025 66.1493 41.5534 66.2004 41.5534 66.2515V69.8977C41.5534 69.9488 41.5025 69.9914 41.4516 69.9914H41.3582L38.8794 66.8904H38.871V69.8381C38.871 69.8892 38.8285 69.9403 38.7691 69.9403H38.5823C38.5314 69.9403 38.4805 69.8892 38.4805 69.8381V66.1919Z" fill="#FFFFFF"/>
<path d="M43.1755 69.3781C43.201 69.344 43.2264 69.3099 43.2604 69.2758C43.3113 69.2077 43.3707 69.1651 43.4471 69.2247C43.4811 69.2588 43.8801 69.6336 44.3554 69.6336C44.7884 69.6336 45.077 69.361 45.077 69.0373C45.077 68.6624 44.7544 68.4409 44.1347 68.1854C43.5405 67.9213 43.184 67.6827 43.184 67.0608C43.184 66.6945 43.4726 66.0981 44.33 66.0981C44.8563 66.0981 45.2553 66.3708 45.2553 66.3708C45.2892 66.3878 45.3486 66.456 45.2892 66.5582C45.2637 66.5923 45.2468 66.6263 45.2213 66.6604C45.1704 66.7371 45.1194 66.7541 45.0345 66.7115C45.0006 66.686 44.6525 66.4645 44.33 66.4645C43.7612 66.4645 43.583 66.8308 43.583 67.0608C43.583 67.4271 43.8546 67.6316 44.313 67.8276C45.043 68.1257 45.5099 68.3983 45.5099 69.0288C45.5099 69.591 44.9751 70 44.3469 70C43.7103 70 43.2774 69.6251 43.2094 69.5655C43.167 69.5229 43.1161 69.4803 43.1755 69.3781Z" fill="#FFFFFF"/>
<path d="M47.591 66.5155H46.6487C46.5893 66.5155 46.5469 66.4644 46.5469 66.4133V66.2599C46.5469 66.2088 46.5893 66.1577 46.6487 66.1577H48.9407C49.0001 66.1577 49.0426 66.2088 49.0426 66.2599V66.4133C49.0426 66.4644 49.0001 66.5155 48.9407 66.5155H47.9985V69.838C47.9985 69.8892 47.9475 69.9403 47.8966 69.9403H47.6929C47.6419 69.9403 47.591 69.8892 47.591 69.838V66.5155Z" fill="#FFFFFF"/>
<path d="M50.3906 66.2516C50.3906 66.2005 50.4416 66.1494 50.4925 66.1494H50.7047C50.7556 66.1494 50.8066 66.2005 50.8066 66.2516V69.8383C50.8066 69.8894 50.7556 69.9405 50.7047 69.9405H50.4925C50.4416 69.9405 50.3906 69.8894 50.3906 69.8383V66.2516Z" fill="#FFFFFF"/>
<path d="M53.2004 66.5155H52.2581C52.1987 66.5155 52.1562 66.4644 52.1562 66.4133V66.2599C52.1562 66.2088 52.1987 66.1577 52.2581 66.1577H54.5501C54.6095 66.1577 54.652 66.2088 54.652 66.2599V66.4133C54.652 66.4644 54.6095 66.5155 54.5501 66.5155H53.6078V69.838C53.6078 69.8892 53.5569 69.9403 53.506 69.9403H53.3022C53.2513 69.9403 53.2004 69.8892 53.2004 69.838V66.5155Z" fill="#FFFFFF"/>
<path d="M55.9609 66.2516C55.9609 66.2005 56.0119 66.1494 56.0628 66.1494H56.2665C56.326 66.1494 56.3684 66.2005 56.3684 66.2516V68.5093C56.3684 69.1226 56.7504 69.6082 57.3871 69.6082C58.0237 69.6082 58.4142 69.1397 58.4142 68.5178V66.2516C58.4142 66.2005 58.4567 66.1494 58.5161 66.1494H58.7198C58.7707 66.1494 58.8217 66.2005 58.8217 66.2516V68.5433C58.8217 69.3697 58.2359 69.9916 57.3871 69.9916C56.5382 69.9916 55.9609 69.3612 55.9609 68.5433V66.2516Z" fill="#FFFFFF"/>
<path d="M62.3008 66.0981C62.844 66.0981 63.243 66.2856 63.608 66.6008C63.6505 66.6434 63.659 66.7115 63.6165 66.7541L63.4722 66.899C63.4298 66.9501 63.3873 66.9501 63.3279 66.8904C63.0478 66.6434 62.6658 66.4815 62.3008 66.4815C61.4519 66.4815 60.7982 67.2056 60.7982 68.0405C60.7982 68.8754 61.4519 69.591 62.3008 69.591C62.7676 69.591 63.0478 69.4036 63.3279 69.1821C63.3788 69.1395 63.4213 69.148 63.4552 69.1651L63.6165 69.3269C63.659 69.361 63.6505 69.4377 63.608 69.4718C63.243 69.8296 62.7761 70 62.2923 70C61.2142 70 60.3398 69.1395 60.3398 68.0576C60.3483 66.9671 61.2227 66.0981 62.3008 66.0981Z" fill="#FFFFFF"/>
<path d="M65.2031 66.2516C65.2031 66.2005 65.2541 66.1494 65.305 66.1494H65.5172C65.5681 66.1494 65.6191 66.2005 65.6191 66.2516V69.8383C65.6191 69.8894 65.5681 69.9405 65.5172 69.9405H65.305C65.2541 69.9405 65.2031 69.8894 65.2031 69.8383V66.2516Z" fill="#FFFFFF"/>
<path d="M69.1425 66.0982C70.2206 66.0982 71.0864 66.9671 71.0864 68.0576C71.0864 69.1396 70.2206 70 69.1425 70C68.0644 70 67.207 69.1396 67.207 68.0576C67.207 66.9671 68.0644 66.0982 69.1425 66.0982ZM69.1425 69.6166C69.9999 69.6166 70.7044 68.9095 70.7044 68.0491C70.7044 67.1886 69.9999 66.473 69.1425 66.473C68.2851 66.473 67.5805 67.1886 67.5805 68.0491C67.5805 68.918 68.2851 69.6166 69.1425 69.6166ZM68.6586 65.587C68.6332 65.5444 68.6586 65.5018 68.6926 65.4848L69.499 65.0333C69.533 65.0077 69.6094 64.9992 69.6433 65.0503L69.7367 65.2462C69.7622 65.2888 69.7452 65.34 69.7027 65.357L68.8369 65.7233C68.7605 65.7574 68.735 65.7574 68.7096 65.7148L68.6586 65.587Z" fill="#FFFFFF"/>
<path d="M72.668 66.1919C72.668 66.1407 72.7189 66.0981 72.7698 66.0981H72.9057L75.3419 69.1395C75.3504 69.1395 75.3504 69.1395 75.3504 69.1395V66.2515C75.3504 66.2004 75.3929 66.1493 75.4523 66.1493H75.6391C75.69 66.1493 75.7409 66.2004 75.7409 66.2515V69.8977C75.7409 69.9488 75.69 69.9914 75.6391 69.9914H75.5457L73.0669 66.8904H73.0585V69.8381C73.0585 69.8892 73.016 69.9403 72.9566 69.9403H72.7698C72.7189 69.9403 72.668 69.8892 72.668 69.8381V66.1919Z" fill="#FFFFFF"/>
<path d="M79.5078 66.2516C79.5078 66.2005 79.5587 66.1494 79.6097 66.1494H79.8134C79.8728 66.1494 79.9153 66.2005 79.9153 66.2516V68.5093C79.9153 69.1226 80.2973 69.6082 80.9339 69.6082C81.5706 69.6082 81.9611 69.1397 81.9611 68.5178V66.2516C81.9611 66.2005 82.0035 66.1494 82.063 66.1494H82.2667C82.3176 66.1494 82.3685 66.2005 82.3685 66.2516V68.5433C82.3685 69.3697 81.7828 69.9916 80.9339 69.9916C80.0851 69.9916 79.5078 69.3612 79.5078 68.5433V66.2516Z" fill="#FFFFFF"/>
<path d="M84.1758 66.1919C84.1758 66.1407 84.2267 66.0981 84.2776 66.0981H84.4135L86.8498 69.1395C86.8583 69.1395 86.8582 69.1395 86.8582 69.1395L86.8667 66.2515C86.8667 66.2004 86.9092 66.1493 86.9686 66.1493H87.1554C87.2063 66.1493 87.2572 66.2004 87.2572 66.2515V69.8977C87.2572 69.9488 87.2063 69.9914 87.1554 69.9914H87.062L84.5832 66.8904H84.5748V69.8381C84.5748 69.8892 84.5323 69.9403 84.4729 69.9403H84.2861C84.2352 69.9403 84.1843 69.8892 84.1843 69.8381V66.1919H84.1758Z" fill="#FFFFFF"/>
<path d="M89.1172 66.2516C89.1172 66.2005 89.1681 66.1494 89.2191 66.1494H89.4313C89.4822 66.1494 89.5331 66.2005 89.5331 66.2516V69.8383C89.5331 69.8894 89.4822 69.9405 89.4313 69.9405H89.2191C89.1681 69.9405 89.1172 69.8894 89.1172 69.8383V66.2516Z" fill="#FFFFFF"/>
<path d="M90.8828 66.2942C90.8489 66.2261 90.8913 66.1494 90.9762 66.1494H91.1884C91.2393 66.1494 91.2733 66.1835 91.2818 66.209L92.623 69.2419H92.6485L93.9897 66.209C93.9982 66.1835 94.0407 66.1494 94.0831 66.1494H94.2953C94.3802 66.1494 94.4227 66.2176 94.3887 66.2942L92.7504 69.9405C92.7334 69.9746 92.6994 70.0001 92.657 70.0001H92.606C92.5721 70.0001 92.5296 69.9746 92.5127 69.9405L90.8828 66.2942Z" fill="#FFFFFF"/>
<path d="M95.7305 66.2516C95.7305 66.2005 95.7729 66.1494 95.8323 66.1494H97.963C98.0225 66.1494 98.0649 66.2005 98.0649 66.2516V66.405C98.0649 66.4561 98.0225 66.5072 97.963 66.5072H96.1464V67.8277H97.6914C97.7423 67.8277 97.7932 67.8788 97.7932 67.9299V68.0833C97.7932 68.1429 97.7423 68.1855 97.6914 68.1855H96.1464V69.5656H97.963C98.0225 69.5656 98.0649 69.6168 98.0649 69.6679V69.8212C98.0649 69.8723 98.0225 69.9234 97.963 69.9234H95.8323C95.7729 69.9234 95.7305 69.8723 95.7305 69.8212V66.2516Z" fill="#FFFFFF"/>
<path d="M99.6875 66.2516C99.6875 66.2005 99.7299 66.1494 99.7894 66.1494H101.19C101.835 66.1494 102.37 66.6606 102.37 67.2995C102.37 67.8021 102.039 68.2111 101.572 68.407L102.311 69.7871C102.345 69.8553 102.311 69.9405 102.217 69.9405H101.946C101.895 69.9405 101.869 69.9149 101.861 69.8894L101.139 68.4581H100.112V69.8383C100.112 69.8894 100.061 69.9405 100.01 69.9405H99.7978C99.7384 69.9405 99.696 69.8894 99.696 69.8383V66.2516H99.6875ZM101.165 68.1003C101.581 68.1003 101.946 67.751 101.946 67.308C101.946 66.8991 101.581 66.5413 101.165 66.5413H100.12V68.0918H101.165V68.1003Z" fill="#FFFFFF"/>
<path d="M103.769 69.3781C103.795 69.344 103.82 69.3099 103.854 69.2758C103.905 69.2077 103.964 69.1651 104.041 69.2247C104.075 69.2588 104.474 69.6336 104.949 69.6336C105.382 69.6336 105.671 69.361 105.671 69.0373C105.671 68.6624 105.348 68.4409 104.728 68.1854C104.134 67.9213 103.778 67.6827 103.778 67.0608C103.778 66.6945 104.066 66.0981 104.924 66.0981C105.45 66.0981 105.849 66.3708 105.849 66.3708C105.883 66.3878 105.942 66.456 105.883 66.5582C105.857 66.5923 105.84 66.6263 105.815 66.6604C105.764 66.7371 105.713 66.7541 105.628 66.7115C105.594 66.686 105.246 66.4645 104.924 66.4645C104.355 66.4645 104.177 66.8308 104.177 67.0608C104.177 67.4271 104.448 67.6316 104.907 67.8276C105.637 68.1257 106.104 68.3983 106.104 69.0288C106.104 69.591 105.569 70 104.941 70C104.304 70 103.871 69.6251 103.803 69.5655C103.761 69.5229 103.701 69.4803 103.769 69.3781Z" fill="#FFFFFF"/>
<path d="M107.641 66.2516C107.641 66.2005 107.692 66.1494 107.742 66.1494H107.955C108.006 66.1494 108.057 66.2005 108.057 66.2516V69.8383C108.057 69.8894 108.006 69.9405 107.955 69.9405H107.742C107.692 69.9405 107.641 69.8894 107.641 69.8383V66.2516Z" fill="#FFFFFF"/>
<path d="M110.458 66.5155H109.516C109.457 66.5155 109.414 66.4644 109.414 66.4133V66.2599C109.414 66.2088 109.457 66.1577 109.516 66.1577H111.808C111.867 66.1577 111.91 66.2088 111.91 66.2599V66.4133C111.91 66.4644 111.867 66.5155 111.808 66.5155H110.866V69.838C110.866 69.8892 110.815 69.9403 110.764 69.9403H110.56C110.509 69.9403 110.458 69.8892 110.458 69.838V66.5155Z" fill="#FFFFFF"/>
<path d="M112.539 69.804L114.177 66.1578C114.194 66.1237 114.22 66.0981 114.271 66.0981H114.322C114.373 66.0981 114.398 66.1237 114.415 66.1578L116.045 69.804C116.079 69.8722 116.036 69.9488 115.952 69.9488H115.739C115.688 69.9488 115.654 69.9148 115.646 69.8892L115.247 68.9947H113.329L112.938 69.8892C112.93 69.9148 112.896 69.9488 112.845 69.9488H112.632C112.548 69.9403 112.505 69.8722 112.539 69.804ZM115.103 68.6539C114.84 68.0661 114.576 67.4697 114.313 66.8734H114.271L113.481 68.6539H115.103Z" fill="#FFFFFF"/>
<path d="M117.394 66.2516C117.394 66.2005 117.436 66.1494 117.495 66.1494H118.896C119.541 66.1494 120.076 66.6606 120.076 67.2995C120.076 67.8021 119.745 68.2111 119.278 68.407L120.017 69.7871C120.051 69.8553 120.017 69.9405 119.923 69.9405H119.643C119.592 69.9405 119.567 69.9149 119.558 69.8894L118.837 68.4581H117.809V69.8383C117.809 69.8894 117.759 69.9405 117.708 69.9405H117.495C117.436 69.9405 117.394 69.8894 117.394 69.8383V66.2516ZM118.862 68.1003C119.278 68.1003 119.643 67.751 119.643 67.308C119.643 66.8991 119.278 66.5413 118.862 66.5413H117.818V68.0918H118.862V68.1003Z" fill="#FFFFFF"/>
<path d="M121.715 66.2516C121.715 66.2005 121.766 66.1494 121.817 66.1494H122.029C122.08 66.1494 122.131 66.2005 122.131 66.2516V69.8383C122.131 69.8894 122.08 69.9405 122.029 69.9405H121.817C121.766 69.9405 121.715 69.8894 121.715 69.8383V66.2516Z" fill="#FFFFFF"/>
<path d="M123.472 69.804L125.111 66.1578C125.128 66.1237 125.153 66.0981 125.204 66.0981H125.255C125.306 66.0981 125.331 66.1237 125.348 66.1578L126.978 69.804C127.012 69.8722 126.97 69.9488 126.885 69.9488H126.673C126.622 69.9488 126.588 69.9148 126.579 69.8892L126.18 68.9947H124.262L123.871 69.8892C123.863 69.9148 123.829 69.9488 123.778 69.9488H123.566C123.489 69.9403 123.447 69.8722 123.472 69.804ZM126.036 68.6539C125.773 68.0661 125.51 67.4697 125.246 66.8734H125.204L124.415 68.6539H126.036Z" fill="#FFFFFF"/>
</svg>
